# xmcd
#
# Track frame offsets:
#	150
#	15588
#	25784
#	47217
#	75216
#	93869
#	105025
#	120540
#	135124
#	149173
#	167195
#	186043
#	204288
#	223254
#	239062
#	256620
#	268648
#	283361
#	299250
#	312135
#	325353
#	335230
#
# Disc length: 4674 seconds
#
# Revision: 1
# Processed by: cddbd v1.4PL0 Copyright (c) Steve Scherf et al.
# Submitted via: CDmax 1.8
#
DISCID=3e124016
DTITLE=Steven Fromholz - Come On Down To Texas For A While - The Anthology 196
DTITLE=9 - 1991
DYEAR=2001
DGENRE=Country
TTITLE0=TEXAS TRILOGY:  Daybreak   * by Frummox
TTITLE1=TEXAS TRILOGY:  Trainride   * by Frummox
TTITLE2=TEXAS TRILOGY:  Bosque County Romance   * by Frummox
TTITLE3=Man With The Big Hat   * by Frummox
TTITLE4=Song For Steven Stills (High Country Caravan)   * by Frummox
TTITLE5=Ain't It Nice To Be Alone
TTITLE6=Blue Lines On White Linen
TTITLE7=Bears
TTITLE8=Everybody's Goin' On The Road
TTITLE9=A Little More Holy
TTITLE10=Hawkeye
TTITLE11=Sweet Janey
TTITLE12=Where Are They All Now?
TTITLE13=Everybody's Baby But Mine
TTITLE14=Yellow Cat
TTITLE15=Fool's Gold
TTITLE16=Late Nite Neon Shadows (Live)
TTITLE17=The Angel  * by Frummox
TTITLE18=The Porter Makes The Train  * by Frummox
TTITLE19=Last Livin' Outlaw
TTITLE20=Come On Down To Texas
TTITLE21=Bonus Track:  I'd Have To Be Crazy (by Willie Nelson with Steven From
TTITLE21=holz)
EXTD=
EXTT0=
EXTT1=
EXTT2=
EXTT3=
EXTT4=
EXTT5=
EXTT6=
EXTT7=
EXTT8=
EXTT9=
EXTT10=
EXTT11=
EXTT12=
EXTT13=
EXTT14=
EXTT15=
EXTT16=
EXTT17=
EXTT18=
EXTT19=
EXTT20=
EXTT21=
PLAYORDER=
